:FULLY-SPECIFIED
:FORCE-ALL-JOINTS-BE-3DOF
:DEGREES
307
root 9.85991 16.6238 6.54955 5.76888 5.26167 3.59918
lfemur 15.2061 6.17285 -25.0941
ltibia 6.94599 -0 0
lfoot -9.3574 -0.153846 -0.427808
ltoes -10.7622 0 0
rfemur -43.5363 -0.317242 15.6482
rtibia 45.8519 -0 0
rfoot -15.2469 -7.70122 0.3466
rtoes -22.4573 0 0
lowerback -6.48598 -4.56548 -5.23083
upperback -0.531627 -5.78595 2.18425
thorax 3.7667 -2.9793 4.62938
lowerneck -20.5752 -4.03729 -12.0993
upperneck 22.1701 -4.94021 12.0738
head 11.2193 -1.82417 5.73366
lclavicle 3.5334e-14 -1.90833e-14 0
lhumerus -14.1461 -29.0645 91.7738
lradius 32.753 -0 0
lwrist 5.80408 0 0
lhand -12.1191 -25.0197 -0.0125089
lfingers 7.12502 -0 0
lthumb 13.9387 4.43662 -0.024986
rclavicle 3.5334e-14 -1.90833e-14 0
rhumerus -49.3494 6.17025 -82.3888
rradius 35.204 -0 0
rwrist -19.1071 0 0
rhand -28.9226 -22.9405 -0.0140797
rfingers 7.12502 -0 0
rthumb -2.27696 -52.9072 -0.0136263
308
root 9.84942 16.611 6.71398 5.83007 5.5217 3.58982
lfemur 16.3187 6.20576 -24.7397
ltibia 6.15158 -0 0
lfoot -8.624 -0.471896 -0.42257
ltoes -11.1178 0 0
rfemur -43.7168 -0.284521 15.6391
rtibia 45.6292 -0 0
rfoot -14.6466 -7.25975 0.369162
rtoes -22.2921 0 0
lowerback -6.5777 -4.60729 -5.25619
upperback -0.579398 -5.83547 2.18896
thorax 3.77715 -3.00347 4.63784
lowerneck -20.4713 -4.07227 -12.159
upperneck 22.0887 -4.99705 12.1533
head 11.182 -1.84847 5.76214
lclavicle 3.5334e-14 -1.90833e-14 0
lhumerus -14.5651 -29.6626 92.2462
lradius 33.1571 -0 0
lwrist 5.9036 0 0
lhand -11.7891 -25.037 -0.0113075
lfingers 7.12502 -0 0
lthumb 14.2566 4.39625 -0.0240007
rclavicle 3.5334e-14 -1.90833e-14 0
rhumerus -49.4939 6.0865 -82.3849
rradius 34.8185 -0 0
rwrist -18.8317 0 0
rhand -28.8671 -23.0541 -0.0141488
rfingers 7.12502 -0 0
rthumb -2.2233 -53.0214 -0.0136907
309
root 9.83893 16.5982 6.87842 5.89239 5.77875 3.57772
lfemur 17.4044 6.23171 -24.3817
ltibia 5.37912 -0 0
lfoot -7.89077 -0.785739 -0.413203
ltoes -11.4685 0 0
rfemur -43.8754 -0.248425 15.6335
rtibia 45.398 -0 0
rfoot -14.0396 -6.81157 0.387506
rtoes -22.1236 0 0
lowerback -6.66939 -4.6462 -5.27895
upperback -0.628028 -5.88125 2.19377
thorax 3.7863 -3.02571 4.64524
lowerneck -20.3665 -4.10827 -12.2194
upperneck 22.0057 -5.05536 12.2338
head 11.1443 -1.87344 5.79081
lclavicle 3.5334e-14 -1.90833e-14 0
lhumerus -15.0108 -30.2491 92.7305
lradius 33.5571 -0 0
lwrist 6.0012 0 0
lhand -11.4579 -25.0528 -0.00999193
lfingers 7.12502 -0 0
lthumb 14.5756 4.35724 -0.0227744
rclavicle 3.5334e-14 -1.90833e-14 0
rhumerus -49.634 6.00601 -82.3829
rradius 34.4362 -0 0
rwrist -18.5576 0 0
rhand -28.812 -23.168 -0.0140956
rfingers 7.12502 -0 0
rthumb -2.17012 -53.136 -0.0136365
310
root 9.82844 16.5854 7.04285 5.95548 6.03215 3.56288
lfemur 18.4591 6.25061 -24.0214
ltibia 4.63214 -0 0
lfoot -7.1608 -1.09391 -0.399875
ltoes -11.8129 0 0
rfemur -44.0124 -0.208878 15.6317
rtibia 45.1594 -0 0
rfoot -13.4291 -6.35856 0.401317
rtoes -21.9524 0 0
lowerback -6.76067 -4.68213 -5.29902
upperback -0.677256 -5.92322 2.19867
thorax 3.79418 -3.04597 4.65157
lowerneck -20.2613 -4.14513 -12.2803
upperneck 21.9215 -5.11491 12.3149
head 11.1064 -1.89898 5.81951
lclavicle 3.5334e-14 -1.90833e-14 0
lhumerus -15.4819 -30.8218 93.2255
lradius 33.9517 -0 0
lwrist 6.09712 0 0
lhand -11.1271 -25.0672 -0.00858511
lfingers 7.12502 -0 0
lthumb 14.8943 4.31976 -0.0213283
rclavicle 3.5334e-14 -1.90833e-14 0
rhumerus -49.769 5.92935 -82.3828
rradius 34.0587 -0 0
rwrist -18.2859 0 0
rhand -28.7577 -23.2819 -0.0139212
rfingers 7.12502 -0 0
rthumb -2.11766 -53.2504 -0.0134648
311
root 9.81795 16.5725 7.20729 6.01899 6.28127 3.54531
lfemur 19.479 6.26244 -23.6601
ltibia 3.9142 -0 0
lfoot -6.43716 -1.39493 -0.382822
ltoes -12.1498 0 0
rfemur -44.128 -0.165806 15.634
rtibia 44.9142 -0 0
rfoot -12.8185 -5.90257 0.410371
rtoes -21.7794 0 0
lowerback -6.85115 -4.71499 -5.31629
upperback -0.726826 -5.96128 2.20368
thorax 3.80079 -3.06422 4.65682
lowerneck -20.1562 -4.18274 -12.3414
upperneck 21.8367 -5.17549 12.3963
head 11.0685 -1.925 5.84812
lclavicle 3.5334e-14 -1.90833e-14 0
lhumerus -15.9767 -31.3789 93.7297
lradius 34.3396 -0 0
lwrist 6.19161 0 0
lhand -10.7981 -25.08 -0.00711147
lfingers 7.12502 -0 0
lthumb 15.2113 4.28402 -0.0196877
rclavicle 3.5334e-14 -1.90833e-14 0
rhumerus -49.8977 5.85715 -82.3847
rradius 33.6875 -0 0
rwrist -18.0176 0 0
rhand -28.7044 -23.3954 -0.0136284
rfingers 7.12502 -0 0
rthumb -2.0662 -53.3645 -0.0131786
312
root 9.80746 16.5597 7.37172 6.08256 6.52544 3.52499
lfemur 20.4599 6.26729 -23.2994
ltibia 3.22884 -0 0
lfoot -5.72293 -1.68735 -0.362345
ltoes -12.4777 0 0
rfemur -44.2223 -0.119139 15.6407
rtibia 44.6632 -0 0
rfoot -12.2111 -5.44548 0.414533
rtoes -21.6051 0 0
lowerback -6.94046 -4.74469 -5.33067
upperback -0.776476 -5.99536 2.20878
thorax 3.80619 -3.08042 4.66096
lowerneck -20.0516 -4.22097 -12.4024
upperneck 21.7515 -5.23692 12.4777
head 11.0307 -1.95142 5.87648
lclavicle 3.5334e-14 -1.90833e-14 0
lhumerus -16.4933 -31.9182 94.2415
lradius 34.7195 -0 0
lwrist 6.2849 0 0
lhand -10.4725 -25.0911 -0.00559695
lfingers 7.12502 -0 0
lthumb 15.525 4.2502 -0.0178815
rclavicle 3.5334e-14 -1.90833e-14 0
rhumerus -50.0193 5.78998 -82.3884
rradius 33.3243 -0 0
rwrist -17.7539 0 0
rhand -28.6524 -23.5081 -0.0132221
rfingers 7.12502 -0 0
rthumb -2.01599 -53.4777 -0.0127823
313
root 9.79697 16.5469 7.53615 6.14583 6.76401 3.50192
lfemur 21.3981 6.26535 -22.9405
ltibia 2.5796 -0 0
lfoot -5.02119 -1.96971 -0.338812
ltoes -12.7953 0 0
rfemur -44.2957 -0.0688122 15.6521
rtibia 44.4074 -0 0
rfoot -11.6102 -4.98916 0.413764
rtoes -21.4305 0 0
lowerback -7.02822 -4.77113 -5.34206
upperback -0.82595 -6.02537 2.21399
thorax 3.81038 -3.09453 4.66398
lowerneck -19.9481 -4.25969 -12.4631
upperneck 21.6666 -5.29897 12.5585
head 10.9934 -1.97817 5.90447
lclavicle 3.5334e-14 -1.90833e-14 0
lhumerus -17.03 -32.4379 94.7591
lradius 35.0903 -0 0
lwrist 6.37724 0 0
lhand -10.1517 -25.1004 -0.00406874
lfingers 7.12502 -0 0
lthumb 15.834 4.21848 -0.0159422
rclavicle 3.5334e-14 -1.90833e-14 0
rhumerus -50.1328 5.72846 -82.3941
rradius 32.9707 -0 0
rwrist -17.4958 0 0
rhand -28.602 -23.6195 -0.0127086
rfingers 7.12502 -0 0
rthumb -1.9673 -53.5897 -0.0122823
314
root 9.78649 16.5341 7.70059 6.20845 6.99632 3.47608
lfemur 22.2894 6.25689 -22.5847
ltibia 1.97005 -0 0
lfoot -4.335 -2.24059 -0.312648
ltoes -13.1012 0 0
rfemur -44.3481 -0.0147626 15.6686
rtibia 44.1476 -0 0
rfoot -11.0191 -4.53549 0.408112
rtoes -21.2561 0 0
lowerback -7.11404 -4.79422 -5.35035
upperback -0.874988 -6.05122 2.21929
thorax 3.81339 -3.10652 4.66585
lowerneck -19.846 -4.29878 -12.5231
upperneck 21.5824 -5.36145 12.6385
head 10.9566 -2.00514 5.93193
lclavicle 3.5334e-14 -1.90833e-14 0
lhumerus -17.5846 -32.9361 95.2807
lradius 35.4505 -0 0
lwrist 6.46887 0 0
lhand -9.83732 -25.1079 -0.00255502
lfingers 7.12502 -0 0
lthumb 16.1369 4.18904 -0.0139054
rclavicle 3.5334e-14 -1.90833e-14 0
rhumerus -50.2374 5.67318 -82.4017
rradius 32.6281 -0 0
rwrist -17.2444 0 0
rhand -28.5534 -23.7294 -0.012096
rfingers 7.12502 -0 0
rthumb -1.92038 -53.7001 -0.0116866
315
root 9.776 16.5212 7.86502 6.27006 7.22172 3.44745
lfemur 23.13 6.24227 -22.2334
ltibia 1.40372 -0 0
lfoot -3.66743 -2.49855 -0.284333
ltoes -13.394 0 0
rfemur -44.3799 0.0430662 15.6903
rtibia 43.8848 -0 0
rfoot -10.4413 -4.08634 0.397718
rtoes -21.0828 0 0
lowerback -7.19754 -4.81387 -5.35546
upperback -0.923331 -6.07284 2.22469
thorax 3.81526 -3.11634 4.66656
lowerneck -19.7458 -4.33813 -12.5823
upperneck 21.4992 -5.42416 12.7173
head 10.9206 -2.03226 5.95873
lclavicle 3.5334e-14 -1.90833e-14 0
lhumerus -18.155 -33.411 95.8041
lradius 35.7989 -0 0
lwrist 6.56004 0 0
lhand -9.53079 -25.1136 -0.00108466
lfingers 7.12502 -0 0
lthumb 16.4322 4.16208 -0.0118096
rclavicle 3.5334e-14 -1.90833e-14 0
rhumerus -50.332 5.62475 -82.4113
rradius 32.2983 -0 0
rwrist -17.0008 0 0
rhand -28.5069 -23.8373 -0.011394
rfingers 7.12502 -0 0
rthumb -1.8755 -53.8085 -0.0110044
